<svg width="20" height="20" viewBox="0 0 20 20" fill="none" xmlns="http://www.w3.org/2000/svg">
<path d="M2.00005 18V12C2.00005 10.5467 2.36672 9.2 3.10005 7.96C3.80672 6.76 4.76005 5.80667 5.96005 5.1C7.20005 4.36667 8.54672 4 10 4C11.4534 4 12.8 4.36667 14.04 5.1C15.24 5.80667 16.1934 6.76 16.9 7.96C17.6334 9.2 18 10.5467 18 12V18H19V20H1.00005V18H2.00005ZM4.00005 18H16V12C16 10.92 15.7267 9.91333 15.18 8.98C14.6467 8.07333 13.9267 7.35333 13.02 6.82C12.0867 6.27333 11.08 6 10 6C8.92005 6 7.91338 6.27333 6.98005 6.82C6.07338 7.35333 5.35338 8.07333 4.82005 8.98C4.27338 9.91333 4.00005 10.92 4.00005 12V18ZM9.00005 0H11V3H9.00005V0ZM17.78 2.8L19.2 4.22L17.08 6.34L15.66 4.92L17.78 2.8ZM0.800049 4.22L2.22005 2.8L4.34005 4.92L2.92005 6.34L0.800049 4.22ZM5.00005 12C5.00005 11.0933 5.22338 10.2567 5.67005 9.49C6.11672 8.72333 6.72338 8.11667 7.49005 7.67C8.25672 7.22333 9.09338 7 10 7V9C9.45338 9 8.95005 9.13333 8.49005 9.4C8.03005 9.66667 7.66672 10.03 7.40005 10.49C7.13338 10.95 7.00005 11.4533 7.00005 12H5.00005Z" fill="#DB0020"/>
</svg>
