<svg width="19" height="19" viewBox="0 0 19 19" fill="none" xmlns="http://www.w3.org/2000/svg">
<path d="M6.88516 8.07439C7.3469 8.89232 7.91087 9.63439 8.57708 10.3006C9.2433 10.9668 9.98537 11.5308 10.8033 11.9925L11.674 10.7656C11.8191 10.5546 12.0137 10.4226 12.2578 10.3699C12.5018 10.3171 12.736 10.3501 12.9602 10.4688C14.3718 11.2472 15.8824 11.6957 17.4918 11.8144C17.7425 11.8408 17.9569 11.9463 18.135 12.131C18.313 12.3157 18.4021 12.54 18.4021 12.8039V17.2167C18.4021 17.4674 18.3163 17.6883 18.1448 17.8796C17.9733 18.0709 17.7623 18.1797 17.5116 18.2061C16.9839 18.2589 16.4562 18.2853 15.9285 18.2853C13.8441 18.2853 11.8521 17.8829 9.95239 17.0782C8.11865 16.2998 6.49599 15.2049 5.08441 13.7933C3.67282 12.3817 2.57786 10.759 1.79951 8.9253C0.994774 7.0256 0.592407 5.03355 0.592407 2.94916C0.592407 2.42146 0.618792 1.89377 0.671561 1.36607C0.697946 1.11542 0.806783 0.904341 0.998072 0.732841C1.18936 0.56134 1.41033 0.47559 1.66099 0.47559H6.07383C6.33768 0.47559 6.56195 0.564638 6.74664 0.742735C6.93134 0.920832 7.03688 1.13521 7.06326 1.38586C7.18199 2.99533 7.63053 4.50586 8.40888 5.91744C8.52761 6.14171 8.56059 6.37587 8.50782 6.61993C8.45505 6.86399 8.32313 7.05858 8.11205 7.20369L6.88516 8.07439ZM4.39181 7.42137L6.27172 6.07575C5.74402 4.92801 5.38123 3.72091 5.18335 2.45444H2.57126V2.94916C2.57126 4.75651 2.92086 6.49131 3.62005 8.15354C4.29286 9.74982 5.24601 11.1647 6.4795 12.3982C7.71298 13.6317 9.12787 14.5848 10.7241 15.2576C12.3864 15.9568 14.1212 16.3064 15.9285 16.3064H16.4232V13.6943C15.1568 13.4965 13.9497 13.1337 12.8019 12.606L11.4563 14.4859C10.9154 14.2748 10.3877 14.0241 9.87323 13.7339L9.81387 13.7141C8.85083 13.16 7.97353 12.4872 7.18199 11.6957C6.39045 10.9042 5.71764 10.0269 5.16356 9.06382L5.14377 9.00445C4.85354 8.48995 4.60289 7.96226 4.39181 7.42137Z" fill="#DB0020"/>
</svg>
