<svg width="14" height="14" viewBox="0 0 14 14" fill="none" xmlns="http://www.w3.org/2000/svg">
<path d="M6.74504 0.333292C7.6517 0.333292 8.51837 0.506626 9.34504 0.853292C10.1361 1.19107 10.8406 1.66885 11.4584 2.28663C12.0761 2.9044 12.5539 3.60885 12.8917 4.39996C13.2384 5.22663 13.4117 6.09329 13.4117 6.99996C13.4117 7.90663 13.2384 8.77329 12.8917 9.59996C12.5539 10.3911 12.0761 11.0955 11.4584 11.7133C10.8406 12.3311 10.1361 12.8088 9.34504 13.1466C8.51837 13.4933 7.6517 13.6666 6.74504 13.6666C5.83837 13.6666 4.9717 13.4933 4.14504 13.1466C3.35392 12.8088 2.64948 12.3311 2.0317 11.7133C1.41392 11.0955 0.936147 10.3911 0.598369 9.59996C0.251702 8.77329 0.0783691 7.90663 0.0783691 6.99996H1.4117C1.4117 7.96885 1.65615 8.86663 2.14504 9.69329C2.61615 10.4933 3.2517 11.1288 4.0517 11.6C4.87837 12.0888 5.77615 12.3333 6.74504 12.3333C7.71392 12.3333 8.6117 12.0888 9.43837 11.6C10.2384 11.1288 10.8739 10.4933 11.345 9.69329C11.8339 8.86663 12.0784 7.96885 12.0784 6.99996C12.0784 6.03107 11.8339 5.13329 11.345 4.30663C10.8739 3.50663 10.2384 2.87107 9.43837 2.39996C8.6117 1.91107 7.71392 1.66663 6.74504 1.66663C5.84726 1.66663 5.00281 1.87996 4.2117 2.30663C3.44726 2.71551 2.82059 3.27996 2.3317 3.99996H4.07837V5.33329H0.0783691V1.33329H1.4117V2.99996C2.03392 2.17329 2.80281 1.5244 3.71837 1.05329C4.66059 0.573293 5.66948 0.333292 6.74504 0.333292ZM7.4117 3.66663V6.71996L9.5717 8.87996L8.62504 9.82663L6.07837 7.27996V3.66663H7.4117Z" fill="#6B7280"/>
</svg>
