<svg width="13" height="14" viewBox="0 0 13 14" fill="none" xmlns="http://www.w3.org/2000/svg">
<path d="M7.41166 11.9067H11.4117V5.89332L6.745 2.26666L2.07833 5.89332V11.9067H6.07833V7.90666H7.41166V11.9067ZM12.745 12.5733C12.745 12.76 12.6806 12.9178 12.5517 13.0467C12.4228 13.1755 12.265 13.24 12.0783 13.24H1.41166C1.225 13.24 1.06722 13.1755 0.938328 13.0467C0.80944 12.9178 0.744995 12.76 0.744995 12.5733V5.57332C0.744995 5.3511 0.82944 5.17332 0.998328 5.03999L6.33166 0.893323C6.45611 0.804435 6.59388 0.75999 6.745 0.75999C6.89611 0.75999 7.03388 0.804435 7.15833 0.893323L12.4917 5.03999C12.6606 5.17332 12.745 5.3511 12.745 5.57332V12.5733Z" fill="#DB0020"/>
</svg>
