<svg width="20" height="20" viewBox="0 0 20 20" fill="none" xmlns="http://www.w3.org/2000/svg">
<path d="M3.64649 5.30991C6.30846 2.64794 7.63944 1.31695 9.25038 1.0618C9.77063 0.979399 10.3007 0.979399 10.821 1.0618C12.4319 1.31695 13.7629 2.64794 16.4249 5.30991C17.5838 6.46885 18.1633 7.04832 18.5242 7.75673C18.6436 7.99103 18.7444 8.23439 18.8257 8.48448C19.0714 9.24057 19.0714 10.0601 19.0714 11.6991V15.9881C19.0714 17.6516 17.7229 19 16.0595 19C14.396 19 13.0476 17.6516 13.0476 15.9881V14.9841C13.0476 13.3207 11.6991 11.9723 10.0357 11.9723C8.37221 11.9723 7.02378 13.3207 7.02378 14.9841V15.9881C7.02378 17.6516 5.67531 19 4.01189 19C2.34847 19 1 17.6516 1 15.9881V11.6991C1 10.0601 1 9.24057 1.24569 8.48448C1.32695 8.23439 1.42774 7.99103 1.54713 7.75673C1.90808 7.04832 2.48754 6.46885 3.64649 5.30991Z" stroke="#CDCDCD" stroke-width="1.5" stroke-linejoin="round"/>
</svg>
