<svg width="20" height="19" viewBox="0 0 20 19" fill="none" xmlns="http://www.w3.org/2000/svg">
<path d="M4.6154 15.5276L0.377808 18.853V1.27558C0.377808 1.02221 0.469654 0.800512 0.653346 0.610485C0.837038 0.420458 1.0619 0.325445 1.32794 0.325445H18.4303C18.6964 0.325445 18.9212 0.420458 19.1049 0.610485C19.2886 0.800512 19.3805 1.02221 19.3805 1.27558V14.5774C19.3805 14.8435 19.2886 15.0715 19.1049 15.2615C18.9212 15.4516 18.6964 15.5402 18.4303 15.5276H4.6154ZM3.95031 13.6273H17.4802V2.22571H2.27807V14.9575L3.95031 13.6273ZM8.929 6.97637H10.8293V8.87664H8.929V6.97637ZM5.12847 6.97637H7.02874V8.87664H5.12847V6.97637ZM12.7295 6.97637H14.6298V8.87664H12.7295V6.97637Z" fill="#DB0020"/>
</svg>
