<svg width="28" height="34" viewBox="0 0 28 34" fill="none" xmlns="http://www.w3.org/2000/svg">
<path d="M9.76295 4.82658C9.76295 5.33941 10.1787 5.75515 10.6915 5.75515C11.2044 5.75515 11.6201 5.33941 11.6201 4.82658H9.76295ZM16.0737 4.82658C16.0737 5.33941 16.4894 5.75515 17.0023 5.75515C17.5151 5.75515 17.9309 5.33941 17.9309 4.82658H16.0737ZM24.0185 19.7924L23.306 20.3879V20.3879L24.0185 19.7924ZM26.9786 25.095L27.8962 24.953L26.9786 25.095ZM13.9938 3.41267C13.481 3.41267 13.0652 3.8284 13.0652 4.34124C13.0652 4.85407 13.481 5.26981 13.9938 5.26981V3.41267ZM23.6896 12.6571L22.7655 12.7486L23.6896 12.6571ZM3.98153 19.7924L4.694 20.3879H4.694L3.98153 19.7924ZM1.02144 25.095L1.93909 25.237L1.02144 25.095ZM14.0062 5.26981C14.519 5.26981 14.9348 4.85407 14.9348 4.34124C14.9348 3.8284 14.519 3.41267 14.0062 3.41267V5.26981ZM4.31042 12.6571L3.38637 12.5656L4.31042 12.6571ZM18.8959 27.2767H17.9673V27.757H18.8959H19.8245V27.2767H18.8959ZM8.979 27.757H9.90757V27.2767H8.979H8.05043V27.757H8.979ZM13.9375 32.5714V31.6429C11.6858 31.6429 9.90757 29.8775 9.90757 27.757H8.979H8.05043C8.05043 30.9544 10.7121 33.5 13.9375 33.5V32.5714ZM18.8959 27.757H17.9673C17.9673 29.8775 16.1891 31.6429 13.9375 31.6429V32.5714V33.5C17.1628 33.5 19.8245 30.9544 19.8245 27.757H18.8959ZM10.6915 4.82658H11.6201C11.6201 3.77564 11.9206 3.05241 12.3132 2.60566C12.7004 2.16511 13.231 1.92857 13.8469 1.92857V1V0.0714286C12.7202 0.0714286 11.6731 0.520727 10.9182 1.37975C10.1688 2.23256 9.76295 3.42262 9.76295 4.82658H10.6915ZM13.8469 1V1.92857C14.4629 1.92857 14.9934 2.16511 15.3806 2.60566C15.7732 3.05241 16.0737 3.77564 16.0737 4.82658H17.0023H17.9309C17.9309 3.42262 17.525 2.23256 16.7756 1.37975C16.0207 0.520727 14.9736 0.0714286 13.8469 0.0714286V1ZM24.0185 19.7924L23.306 20.3879C23.5006 20.6207 23.7999 20.8927 24.0166 21.1046C24.2642 21.3466 24.5266 21.6203 24.7836 21.9639C25.2885 22.6389 25.8134 23.6376 26.0609 25.237L26.9786 25.095L27.8962 24.953C27.6017 23.0498 26.9557 21.7672 26.2707 20.8515C25.9328 20.3998 25.5954 20.0508 25.3147 19.7764C25.0032 19.472 24.8456 19.334 24.7309 19.1969L24.0185 19.7924ZM13.9938 4.34124V5.26981C13.9957 5.26981 13.9975 5.26981 13.9994 5.26981L14 4.34124L14.0006 3.41267C13.9984 3.41267 13.9961 3.41267 13.9938 3.41267V4.34124ZM14 4.34124L13.9994 5.26981C18.6775 5.27283 22.4013 9.07056 22.7655 12.7486L23.6896 12.6571L24.6136 12.5656C24.1547 7.93111 19.6263 3.4163 14.0006 3.41267L14 4.34124ZM23.6896 12.6571L22.7655 12.7486C22.9637 14.7499 22.8675 16.2512 22.8068 17.407C22.7772 17.97 22.7517 18.5113 22.7911 18.9721C22.8309 19.4362 22.945 19.9559 23.306 20.3879L24.0185 19.7924L24.7309 19.1969C24.7261 19.1911 24.6677 19.1199 24.6415 18.8137C24.615 18.5043 24.6303 18.096 24.6614 17.5045C24.722 16.351 24.8272 14.7223 24.6136 12.5656L23.6896 12.6571ZM3.98153 19.7924L3.26906 19.1969C3.15442 19.334 2.99682 19.472 2.6853 19.7764C2.4046 20.0508 2.06719 20.3998 1.72927 20.8515C1.04426 21.7672 0.398311 23.0498 0.103795 24.953L1.02144 25.095L1.93909 25.237C2.1866 23.6376 2.71146 22.6389 3.21637 21.9639C3.47342 21.6203 3.73575 21.3466 3.98336 21.1046C4.20014 20.8927 4.49942 20.6207 4.694 20.3879L3.98153 19.7924ZM14.0062 4.34124V3.41267C14.0039 3.41267 14.0016 3.41267 13.9994 3.41267L14 4.34124L14.0006 5.26981C14.0025 5.26981 14.0043 5.26981 14.0062 5.26981V4.34124ZM14 4.34124L13.9994 3.41267C8.37373 3.4163 3.84531 7.93111 3.38637 12.5656L4.31042 12.6571L5.23448 12.7486C5.5987 9.07056 9.32247 5.27283 14.0006 5.26981L14 4.34124ZM4.31042 12.6571L3.38637 12.5656C3.1728 14.7223 3.27801 16.351 3.33865 17.5045C3.36975 18.096 3.38498 18.5043 3.35849 18.8137C3.33229 19.1199 3.27385 19.1911 3.26906 19.1969L3.98153 19.7924L4.694 20.3879C5.05503 19.9559 5.16915 19.4362 5.20887 18.9721C5.24831 18.5113 5.22283 17.97 5.19323 17.407C5.13247 16.2512 5.0363 14.7499 5.23448 12.7486L4.31042 12.6571ZM3.11901 27.2767V28.2052H24.881V27.2767V26.3481H3.11901V27.2767ZM1.02144 25.095L0.103795 24.953C-0.188407 26.8413 1.44503 28.2052 3.11901 28.2052V27.2767V26.3481C2.30346 26.3481 1.86139 25.7392 1.93909 25.237L1.02144 25.095ZM26.9786 25.095L26.0609 25.237C26.1386 25.7392 25.6965 26.3481 24.881 26.3481V27.2767V28.2052C26.555 28.2052 28.1884 26.8413 27.8962 24.953L26.9786 25.095Z" fill="black"/>
</svg>
