<svg width="12" height="14" viewBox="0 0 12 14" fill="none" xmlns="http://www.w3.org/2000/svg">
<path d="M11.5783 14H10.245V12.6667C10.245 12.3022 10.1561 11.9667 9.97829 11.66C9.80051 11.3533 9.55829 11.1111 9.25162 10.9333C8.94495 10.7556 8.6094 10.6667 8.24495 10.6667H4.24495C3.88051 10.6667 3.54495 10.7556 3.23829 10.9333C2.93162 11.1111 2.6894 11.3533 2.51162 11.66C2.33384 11.9667 2.24495 12.3022 2.24495 12.6667V14H0.911621V12.6667C0.911621 12.0622 1.06051 11.5044 1.35829 10.9933C1.65607 10.4822 2.06051 10.0778 2.57162 9.78C3.08273 9.48222 3.64051 9.33333 4.24495 9.33333H8.24495C8.8494 9.33333 9.40718 9.48222 9.91829 9.78C10.4294 10.0778 10.8338 10.4822 11.1316 10.9933C11.4294 11.5044 11.5783 12.0622 11.5783 12.6667V14ZM6.24495 8C5.52495 8 4.85384 7.81778 4.23162 7.45333C3.62718 7.09778 3.14718 6.61778 2.79162 6.01333C2.42718 5.39111 2.24495 4.72 2.24495 4C2.24495 3.28 2.42718 2.60889 2.79162 1.98667C3.14718 1.38222 3.62718 0.902222 4.23162 0.546666C4.85384 0.182221 5.52495 0 6.24495 0C6.96495 0 7.63607 0.182221 8.25829 0.546666C8.86273 0.902222 9.34273 1.38222 9.69829 1.98667C10.0627 2.60889 10.245 3.28 10.245 4C10.245 4.72 10.0627 5.39111 9.69829 6.01333C9.34273 6.61778 8.86273 7.09778 8.25829 7.45333C7.63607 7.81778 6.96495 8 6.24495 8ZM6.24495 6.66667C6.72495 6.66667 7.1694 6.54667 7.57829 6.30667C7.98718 6.06667 8.31162 5.74222 8.55162 5.33333C8.79162 4.92444 8.91162 4.48 8.91162 4C8.91162 3.52 8.79162 3.07555 8.55162 2.66667C8.31162 2.25778 7.98718 1.93333 7.57829 1.69333C7.1694 1.45333 6.72495 1.33333 6.24495 1.33333C5.76495 1.33333 5.32051 1.45333 4.91162 1.69333C4.50273 1.93333 4.17829 2.25778 3.93829 2.66667C3.69829 3.07555 3.57829 3.52 3.57829 4C3.57829 4.48 3.69829 4.92444 3.93829 5.33333C4.17829 5.74222 4.50273 6.06667 4.91162 6.30667C5.32051 6.54667 5.76495 6.66667 6.24495 6.66667Z" fill="#6B7280"/>
</svg>
