<svg width="13" height="16" viewBox="0 0 13 16" fill="none" xmlns="http://www.w3.org/2000/svg">
<path d="M1.265 1.88004L6.745 0.666707L12.225 1.88004C12.3761 1.9156 12.5006 1.9956 12.5983 2.12004C12.6961 2.24448 12.745 2.38226 12.745 2.53337V9.18671C12.745 9.86226 12.5872 10.4934 12.2717 11.08C11.9561 11.6667 11.5183 12.1467 10.9583 12.52L6.745 15.3334L2.53166 12.52C1.97166 12.1467 1.53388 11.6667 1.21833 11.08C0.902773 10.4934 0.744995 9.86226 0.744995 9.18671V2.53337C0.744995 2.38226 0.793884 2.24448 0.891662 2.12004C0.98944 1.9956 1.11388 1.9156 1.265 1.88004ZM2.07833 3.06671V9.18671C2.07833 9.64004 2.18277 10.0623 2.39166 10.4534C2.60055 10.8445 2.89166 11.1645 3.265 11.4134L6.745 13.7334L10.225 11.4134C10.5983 11.1645 10.8894 10.8445 11.0983 10.4534C11.3072 10.0623 11.4117 9.64004 11.4117 9.18671V3.06671L6.745 2.02671L2.07833 3.06671Z" fill="#6B7280"/>
</svg>
